<svg width="24" height="24" viewBox="0 0 24 24" fill="none" xmlns="http://www.w3.org/2000/svg">
<path d="M11.95 1H12.05C13.877 1 15.316 1 16.47 1.105C17.648 1.211 18.626 1.433 19.5 1.938C20.564 2.55235 21.4476 3.43595 22.062 4.5C22.567 5.374 22.789 6.352 22.895 7.53C23 8.684 23 10.123 23 11.95V12.05C23 13.877 23 15.316 22.895 16.47C22.789 17.648 22.567 18.626 22.062 19.5C21.4476 20.564 20.564 21.4476 19.5 22.062C18.626 22.567 17.648 22.789 16.47 22.895C15.316 23 13.877 23 12.05 23H11.95C10.123 23 8.684 23 7.53 22.895C6.352 22.789 5.374 22.567 4.5 22.062C3.43595 21.4476 2.55235 20.564 1.938 19.5C1.433 18.626 1.211 17.648 1.105 16.47C1 15.316 1 13.877 1 12.05V11.95C1 10.123 1 8.684 1.105 7.53C1.211 6.352 1.433 5.374 1.938 4.5C2.55235 3.43595 3.43595 2.55235 4.5 1.938C5.374 1.433 6.352 1.211 7.53 1.105C8.684 1 10.123 1 11.95 1ZM7.71 3.096C6.671 3.191 6.019 3.37 5.5 3.67C4.73997 4.10882 4.10882 4.73997 3.67 5.5C3.37 6.019 3.19 6.671 3.096 7.71C3.001 8.764 3 10.112 3 12C3 13.888 3.001 15.236 3.096 16.29C3.191 17.329 3.37 17.981 3.67 18.5C4.10882 19.26 4.73997 19.8912 5.5 20.33C6.019 20.63 6.671 20.81 7.71 20.904C8.764 20.999 10.112 21 12 21C13.888 21 15.236 20.999 16.29 20.904C17.329 20.809 17.981 20.63 18.5 20.33C19.26 19.8912 19.8912 19.26 20.33 18.5C20.63 17.981 20.81 17.329 20.904 16.29C20.999 15.237 21 13.888 21 12C21 10.112 20.999 8.764 20.904 7.71C20.809 6.671 20.63 6.019 20.33 5.5C19.8912 4.73997 19.26 4.10882 18.5 3.67C17.981 3.37 17.329 3.19 16.29 3.096C15.237 3.001 13.888 3 12 3C10.112 3 8.764 3.001 7.71 3.096ZM16.75 6.252C16.75 5.7 17.2 5.25 17.752 5.25C18.304 5.25 18.754 5.7 18.754 6.252C18.754 6.804 18.304 7.254 17.752 7.254C17.2 7.254 16.75 6.804 16.75 6.252ZM12 8.5C11.5404 8.5 11.0852 8.59053 10.6606 8.76642C10.236 8.94231 9.85013 9.20012 9.52513 9.52513C9.20012 9.85013 8.94231 10.236 8.76642 10.6606C8.59053 11.0852 8.5 11.5404 8.5 12C8.5 12.4596 8.59053 12.9148 8.76642 13.3394C8.94231 13.764 9.20012 14.1499 9.52513 14.4749C9.85013 14.7999 10.236 15.0577 10.6606 15.2336C11.0852 15.4095 11.5404 15.5 12 15.5C12.9283 15.5 13.8185 15.1313 14.4749 14.4749C15.1313 13.8185 15.5 12.9283 15.5 12C15.5 11.0717 15.1313 10.1815 14.4749 9.52513C13.8185 8.86875 12.9283 8.5 12 8.5ZM6.5 12C6.5 10.5413 7.07946 9.14236 8.11091 8.11091C9.14236 7.07946 10.5413 6.5 12 6.5C13.4587 6.5 14.8576 7.07946 15.8891 8.11091C16.9205 9.14236 17.5 10.5413 17.5 12C17.5 13.4587 16.9205 14.8576 15.8891 15.8891C14.8576 16.9205 13.4587 17.5 12 17.5C10.5413 17.5 9.14236 16.9205 8.11091 15.8891C7.07946 14.8576 6.5 13.4587 6.5 12Z" fill="#333333"/>
</svg>
