<svg width="24" height="24" viewBox="0 0 24 24" fill="none" xmlns="http://www.w3.org/2000/svg">
<path fill-rule="evenodd" clip-rule="evenodd" d="M12 1.25C6.18167 1.25 1.25 5.28215 1.25 10.5C1.25 15.7178 6.18167 19.75 12 19.75H12.0007C12.4233 19.7496 12.8398 19.7292 13.25 19.6885V22C13.25 22.3019 13.431 22.5744 13.7093 22.6914C13.9876 22.8084 14.309 22.7471 14.5247 22.5359C16.1947 20.9009 19.0535 18.0085 20.8412 15.766C22.0374 14.2811 22.75 12.4666 22.75 10.5C22.75 5.28215 17.8183 1.25 12 1.25ZM2.75 10.5C2.75 6.32985 6.77233 2.75 12 2.75C17.2277 2.75 21.25 6.32985 21.25 10.5C21.25 12.0927 20.6751 13.5816 19.672 14.8264L19.6695 14.8295C18.3335 16.5057 16.3515 18.5861 14.75 20.1984V18.83C14.75 18.6086 14.6522 18.3985 14.4827 18.256C14.3132 18.1135 14.0894 18.0531 13.8713 18.0911C13.2688 18.1961 12.645 18.2494 11.9993 18.25C6.77195 18.2497 2.75 14.67 2.75 10.5ZM11.7431 8.11413C11.5697 7.82506 11.2247 7.68723 10.8998 7.77721C10.5749 7.8672 10.35 8.16289 10.35 8.5V12.5C10.35 12.9142 10.6858 13.25 11.1 13.25C11.5142 13.25 11.85 12.9142 11.85 12.5V11.2077L12.8569 12.8859C13.0303 13.1749 13.3753 13.3128 13.7002 13.2228C14.0251 13.1328 14.25 12.8371 14.25 12.5V8.5C14.25 8.08579 13.9142 7.75 13.5 7.75C13.0858 7.75 12.75 8.08579 12.75 8.5V9.79226L11.7431 8.11413ZM6.75 8.5C6.75 8.08579 6.41421 7.75 6 7.75C5.58579 7.75 5.25 8.08579 5.25 8.5V12.5C5.25 12.9142 5.58579 13.25 6 13.25H7C7.41421 13.25 7.75 12.9142 7.75 12.5C7.75 12.0858 7.41421 11.75 7 11.75H6.75V8.5ZM9.75 8.5C9.75 8.08579 9.41421 7.75 9 7.75C8.58579 7.75 8.25 8.08579 8.25 8.5V12.5C8.25 12.9142 8.58579 13.25 9 13.25C9.41421 13.25 9.75 12.9142 9.75 12.5V8.5ZM15.6 7.75C15.1858 7.75 14.85 8.08579 14.85 8.5V10.5V12.5C14.85 12.9142 15.1858 13.25 15.6 13.25H17.5C17.9142 13.25 18.25 12.9142 18.25 12.5C18.25 12.0858 17.9142 11.75 17.5 11.75H16.35V11.25H17.04C17.4542 11.25 17.79 10.9142 17.79 10.5C17.79 10.0858 17.4542 9.75 17.04 9.75H16.35V9.25H17.5C17.9142 9.25 18.25 8.91421 18.25 8.5C18.25 8.08579 17.9142 7.75 17.5 7.75H15.6Z" fill="#333333"/>
</svg>
