<svg width="140" height="40" viewBox="0 0 140 40" fill="none" xmlns="http://www.w3.org/2000/svg">
<path d="M122.347 26.5615C122.317 26.2285 122.332 26.0318 122.392 25.9713C122.452 25.9107 122.694 25.8805 123.117 25.8805C123.63 25.8805 124.113 26.0621 124.566 26.4253C125.05 26.7582 125.291 27.1063 125.291 27.4695C125.291 27.8024 125.397 28.0143 125.608 28.1051C125.82 28.1959 126.016 28.1051 126.197 27.8327C126.288 27.6511 126.756 27.6208 127.601 27.7419C128.477 27.8327 129.096 27.9991 129.458 28.2413C129.851 28.4834 130.047 28.7104 130.047 28.9223C130.047 29.2552 129.156 29.5428 127.375 29.7849C126.469 29.8757 125.895 30.0724 125.653 30.3751C125.412 30.6475 125.276 31.3134 125.246 32.3727L125.155 34.2796L126.786 34.1434C129.383 33.992 131.059 34.0071 131.814 34.1888C132.116 34.2796 132.569 34.552 133.173 35.006C133.807 35.4902 134.124 35.808 134.124 35.9594C134.124 36.3831 132.388 36.6555 128.915 36.7766C124.446 36.9279 121.728 37.1852 120.761 37.5484C119.463 38.0327 118.451 38.3353 117.727 38.4564C117.002 38.6077 116.081 38.638 114.963 38.5472C113.182 38.4564 112.291 38.1991 112.291 37.7754C112.291 37.6846 112.382 37.5484 112.563 37.3668C112.804 37.1246 113.469 36.9431 114.556 36.822C115.643 36.7009 116.836 36.4436 118.134 36.0502C119.463 35.6567 120.475 35.3692 121.169 35.1876C121.682 35.0362 122 34.8849 122.12 34.7336C122.241 34.6125 122.347 34.2039 122.437 33.5077C122.558 32.2063 122.468 31.5555 122.166 31.5555C122.015 31.5555 121.849 31.6009 121.667 31.6917C121.305 31.8733 120.505 32.1155 119.267 32.4181C118.029 32.7208 117.319 32.8873 117.138 32.9175C116.926 32.9781 116.504 32.8873 115.869 32.6451C115.265 32.3727 114.963 32.1609 114.963 32.0095C114.963 31.5858 115.356 31.2075 116.141 30.8745C116.926 30.5113 118.602 30.0119 121.169 29.3763C121.622 29.2855 121.924 29.1644 122.075 29.0131C122.226 28.8618 122.317 28.6045 122.347 28.2413C122.498 27.6359 122.498 27.076 122.347 26.5615ZM126.786 15.7561C127.752 15.5745 128.417 15.514 128.779 15.5745C129.172 15.6048 129.549 15.7864 129.911 16.1194C130.274 16.4826 130.47 16.8004 130.5 17.0728C130.53 17.3149 130.334 17.8143 129.911 18.571C129.489 19.3579 129.277 19.8422 129.277 20.0238C129.277 20.2659 128.975 21.068 128.371 22.43C127.767 23.792 127.39 24.5336 127.239 24.6546C127.027 24.7454 126.559 24.7908 125.835 24.7908C125.11 24.7908 124.249 24.9422 123.253 25.2449C120.082 26.1831 118.497 26.7431 118.497 26.9247C118.497 27.0457 118.149 26.849 117.455 26.3345C116.76 25.7897 116.141 24.927 115.598 23.7466C114.359 21.0831 113.846 19.479 114.057 18.9342C114.148 18.692 114.586 18.5256 115.371 18.4348C116.126 18.344 117.636 18.0413 119.901 17.5268C122.196 17.0122 123.736 16.6188 124.521 16.3464C125.276 16.1042 126.031 15.9075 126.786 15.7561ZM128.281 17.436C128.281 17.2241 128.205 17.0879 128.054 17.0274C127.933 16.9366 127.692 16.9214 127.329 16.982C126.635 17.0728 124.748 17.784 121.667 19.1158L119.901 19.8876C119.297 20.1903 118.693 20.3416 118.089 20.3416C117.636 20.3416 117.319 20.4173 117.138 20.5686C116.987 20.6897 117.002 20.8713 117.183 21.1134C117.334 21.3253 117.56 21.9912 117.862 23.111C118.195 24.2309 118.481 24.7908 118.723 24.7908C118.995 24.7908 119.961 24.5033 121.622 23.9282C123.313 23.3532 124.4 23.0656 124.883 23.0656C125.397 23.0656 125.91 22.763 126.424 22.1576C126.786 21.6733 127.178 20.8864 127.601 19.7968C128.054 18.7072 128.281 17.9202 128.281 17.436ZM109.301 15.847C110.237 15.06 110.706 14.8179 110.706 15.1205C110.706 15.2719 110.585 15.4837 110.343 15.7561C110.102 15.9983 109.588 16.8004 108.803 18.1624C108.229 19.1007 107.474 20.0692 106.538 21.068C105.632 22.0668 105.028 22.5662 104.726 22.5662C104.424 22.5662 104.122 22.3544 103.82 21.9306C103.549 21.5069 103.413 21.068 103.413 20.614C103.413 19.4033 104.515 18.344 106.719 17.436C107.776 16.982 108.637 16.4523 109.301 15.847ZM124.612 8.35587C124.521 8.0532 125.216 7.16032 126.695 5.67724C128.175 4.19416 128.93 3.45261 128.96 3.45261C129.021 3.45261 129.187 3.52828 129.458 3.67962C129.76 3.80068 130.213 3.99742 130.817 4.26982C131.421 4.51196 131.829 4.87516 132.04 5.35943C132.252 5.84371 132.176 6.20691 131.814 6.44905C131.512 6.60038 130.968 6.67605 130.183 6.67605C129.428 6.67605 129.005 6.76685 128.915 6.94845C128.824 7.13005 128.598 7.22086 128.235 7.22086C127.903 7.22086 127.254 7.47812 126.288 7.99266C125.623 8.3256 125.201 8.5072 125.019 8.53747C124.838 8.53747 124.702 8.47694 124.612 8.35587ZM120.807 1.682C121.018 1.43986 121.214 1.36419 121.396 1.45499C121.577 1.51553 121.879 1.75766 122.302 2.1814C122.724 2.6354 122.951 3.14994 122.981 3.72502C123.041 4.26982 123.072 5.99504 123.072 8.90067L122.981 11.7155H124.249C125.034 11.7155 126.016 11.549 127.194 11.2161C129.338 10.641 131.572 10.2778 133.898 10.1265C136.223 9.97515 137.823 10.1114 138.699 10.5351C139.273 10.8075 139.665 11.1707 139.877 11.6247C140.088 12.0484 140.028 12.4268 139.695 12.7597C139.424 13.0927 139.182 13.2591 138.971 13.2591C138.759 13.2591 138.563 13.3802 138.382 13.6223C138.201 13.8342 137.506 14.0007 136.298 14.1217C135.121 14.2428 134.154 14.5001 133.399 14.8935C132.644 15.287 132.252 15.4837 132.222 15.4837C131.799 15.4837 132.071 14.8784 133.037 13.6677C133.369 13.244 133.701 12.8959 134.033 12.6235C134.607 12.1392 134.894 11.7912 134.894 11.5793C134.894 11.3674 134.456 11.2161 133.58 11.1253C132.705 11.0042 132.116 11.0345 131.814 11.2161C131.512 11.3977 131.149 11.4885 130.727 11.4885C130.334 11.4885 129.73 11.6247 128.915 11.8971C127.103 12.6235 125.804 12.9867 125.019 12.9867C124.415 12.9867 124.038 13.0473 123.887 13.1683C123.706 13.3197 122.754 13.6677 121.033 14.2125C119.312 14.7271 118.029 15.0751 117.183 15.2567C116.217 15.4686 115.356 15.4232 114.601 15.1205C113.001 14.5152 112.653 14.0612 113.559 13.7585C114.012 13.6072 115.13 13.3651 116.911 13.0321C118.723 12.6689 119.871 12.4873 120.354 12.4873H121.124L120.897 10.0357C120.807 8.43154 120.716 7.58406 120.626 7.49326C120.444 7.25112 119.433 8.02293 117.591 9.80869C116.534 10.8983 115.884 11.4582 115.643 11.4885C115.401 11.5793 114.812 11.2615 113.876 10.5351C112.97 9.80868 112.472 9.29415 112.381 8.99148C112.261 8.598 112.397 8.29533 112.789 8.08346C113.212 7.84133 113.635 7.81106 114.057 7.99266C114.51 8.144 115.462 8.0078 116.911 7.58406L119.765 6.72145C120.037 6.63065 120.203 6.47931 120.263 6.26745C120.354 6.02531 120.429 5.35944 120.49 4.26982C120.52 2.78674 120.626 1.92413 120.807 1.682Z" fill="#333333"/>
<path d="M67.945 22.203C68.0054 22.0214 68.1111 21.9154 68.2621 21.8852C68.4433 21.8246 68.8057 21.8246 69.3492 21.8852C70.1646 21.9154 70.7836 22.0819 71.2064 22.3846C71.5386 22.6267 71.7047 22.9142 71.7047 23.2472C71.7047 23.5498 71.599 24.7605 71.3876 26.8792C71.2668 28.332 71.2064 29.8605 71.2064 31.4647C71.2064 33.0386 71.2668 34.0979 71.3876 34.6427C71.5386 35.1875 71.9009 35.5356 72.4747 35.6869C73.0485 35.8382 74.3923 35.9139 76.5061 35.9139C78.3784 35.9139 80.4167 35.8382 82.6212 35.6869C84.8558 35.5356 86.1846 35.3842 86.6073 35.2329C86.9093 35.1118 87.0754 34.8092 87.1056 34.3249C87.1358 33.8709 87.2415 33.432 87.4227 33.0083C87.634 32.5845 87.8152 32.3727 87.9662 32.3727C88.1172 32.3727 88.2682 32.6905 88.4192 33.3261C88.691 34.3249 89.3251 34.9756 90.3217 35.2783C90.684 35.3994 90.8652 35.5961 90.8652 35.8685C90.8652 36.1712 90.5783 36.5193 90.0046 36.9127C89.4308 37.3062 88.8269 37.5635 88.1927 37.6845C87.4982 37.8661 84.8407 37.9569 80.2205 37.9569C75.6002 37.9569 72.9428 37.8661 72.2482 37.6845C71.0705 37.4424 70.2401 37.0792 69.7569 36.5949C69.3039 36.1409 69.0019 35.3842 68.851 34.3249C68.7302 33.2656 68.6698 31.4495 68.6698 28.8768C68.6698 26.4857 68.6396 25.0027 68.5792 24.4276C68.549 23.8223 68.4433 23.4136 68.2621 23.2018C67.9601 22.8386 67.8544 22.5056 67.945 22.203ZM67.8997 17.9807C68.2319 17.9202 68.6245 17.9353 69.0774 18.0261C69.5606 18.0867 69.8777 18.2229 70.0287 18.4347C70.3005 18.6466 70.3005 19.0249 70.0287 19.5697C69.7569 20.0843 69.4398 20.3415 69.0774 20.3415C68.7151 20.3415 67.9299 20.9015 66.722 22.0214C65.5141 23.111 63.2039 25.3961 59.7916 28.8768C56.198 32.5089 54.3107 34.3249 54.1295 34.3249C53.2839 34.3249 54.2352 32.6905 56.9832 29.4216C57.8589 28.332 58.8706 27.1668 60.0181 25.9258L64.9101 20.7502C66.5106 18.9947 67.5071 18.0715 67.8997 17.9807ZM75.419 6.9938C75.4794 6.78193 75.6002 6.676 75.7814 6.676C75.9626 6.64573 76.2947 6.73653 76.7779 6.9484C77.714 7.3116 78.2576 7.88668 78.4086 8.67362C78.4992 9.00656 78.4086 9.23356 78.1368 9.35463C77.865 9.44543 77.4574 9.68756 76.9138 10.081C76.4004 10.4442 75.9777 10.641 75.6455 10.6712C75.3435 10.6712 74.9962 10.7469 74.6037 10.8982C74.3017 10.9285 74.1205 10.9436 74.0601 10.9436C73.9997 10.9134 73.9695 10.762 73.9695 10.4896C73.9695 10.1567 74.1205 9.71783 74.4225 9.17303C74.9358 8.26502 75.268 7.53861 75.419 6.9938ZM66.8579 2.22675C67.4317 1.68194 68.3527 1.95435 69.621 3.04396L70.9799 4.26977V5.81339C70.9799 6.8122 70.9044 7.52347 70.7534 7.94721C70.6326 8.34068 70.5269 9.43029 70.4363 11.216C70.3156 13.0321 70.3608 14.0763 70.5722 14.3487C70.8138 14.5908 71.6292 14.5908 73.0183 14.3487C74.4074 14.0763 75.6606 13.9401 76.7779 13.9401C77.6234 13.9401 78.1217 13.9703 78.2727 14.0309C78.4237 14.0914 78.5294 14.273 78.5898 14.5757C78.6502 14.9994 78.5898 15.2718 78.4086 15.3929C78.2576 15.514 77.4423 15.5291 75.9626 15.4383C74.966 15.408 74.1658 15.4232 73.5618 15.4837C72.9579 15.5442 71.9311 15.7712 70.4816 16.1647C68.3376 16.7095 66.6465 17.2543 65.4084 17.7991C63.0832 18.9493 61.1203 19.7816 59.5198 20.2961L57.572 20.9318L56.0319 20.4777C55.2166 20.2659 54.6428 20.0843 54.3107 19.9329C54.0087 19.7513 53.8879 19.5697 53.9483 19.3881C53.9785 19.2671 54.2805 19.1006 54.8542 18.8887C55.4582 18.6466 56.0772 18.4499 56.7114 18.2985C57.3154 18.1775 59.1121 17.6175 62.1017 16.6187C65.1215 15.5896 66.8428 15.06 67.2656 15.0297C67.8091 14.9692 68.1262 14.8632 68.2168 14.7119C68.3376 14.5606 68.3376 14.273 68.2168 13.8493C68.096 13.3953 67.945 12.6991 67.7638 11.7609C67.5223 10.2778 67.3411 9.46056 67.2203 9.30923C67.1297 9.12762 66.7824 9.24869 66.1784 9.67243C65.0913 10.3988 64.1099 11.1706 63.2341 11.9879C62.3584 12.7748 61.8601 13.3801 61.7394 13.8039C61.4978 14.4092 61.226 14.7119 60.924 14.7119C60.8032 14.7119 60.7428 14.6211 60.7428 14.4395C60.7428 14.2579 60.3804 14.0006 59.6557 13.6677C59.1121 13.365 58.7347 13.0472 58.5233 12.7143C58.3119 12.3511 58.1005 11.6701 57.8891 10.6712C57.8287 10.308 57.8136 10.081 57.8438 9.99023C57.874 9.89943 57.9948 9.85403 58.2062 9.85403C58.478 9.85403 58.9611 10.0962 59.6557 10.5804L60.6522 11.216L63.6871 9.94483C65.7406 9.09736 66.873 8.58282 67.0844 8.40122C67.2958 8.18935 67.3109 7.72021 67.1297 6.9938C66.9485 6.23713 66.7975 5.31398 66.6767 4.22437C66.5559 3.10449 66.6163 2.43862 66.8579 2.22675Z" fill="#333333"/>
<path d="M29.9865 21.8852C30.0771 21.7641 30.2281 21.7036 30.4395 21.7036C30.6509 21.7036 30.8019 21.7641 30.8925 21.8852C30.983 22.0063 31.3605 22.1576 32.0249 22.3392C32.659 22.4905 33.112 22.7175 33.3838 23.0202C33.6556 23.3229 33.7462 23.6407 33.6556 23.9736C33.5952 24.3671 33.2479 25.033 32.6137 25.9712C32.0098 26.8793 31.7078 27.3938 31.7078 27.5149C31.7078 27.6057 31.587 27.8024 31.3454 28.1051C31.134 28.3775 31.0736 28.6045 31.1642 28.7861C31.285 28.9374 31.5115 29.0131 31.8437 29.0131C32.1759 29.0131 32.5382 29.1039 32.9308 29.2855C33.3536 29.4368 33.565 29.573 33.565 29.6941C33.565 30.1178 33.2026 30.6172 32.4778 31.1923C31.7833 31.7371 31.1944 32.0095 30.7113 32.0095C29.5033 32.0095 27.8878 31.7976 25.8645 31.3739C23.8412 30.9502 22.8296 30.6021 22.8296 30.3297C22.8296 30.1784 23.1467 29.9968 23.7808 29.7849C24.415 29.573 25.1549 29.4217 26.0004 29.3309C27.0875 29.2401 27.767 29.0585 28.0388 28.7861C28.3407 28.5137 28.5521 27.8478 28.6729 26.7885C28.7635 25.6686 28.7031 25.1086 28.4917 25.1086C27.918 25.1086 26.0306 25.5021 22.8296 26.289L22.0143 26.4706L22.0596 28.1051C22.1502 29.2249 22.3766 30.1632 22.739 30.9199C23.1014 31.6463 23.1618 32.0095 22.9202 32.0095C22.6786 32.0095 22.5125 32.1306 22.4219 32.3727C22.3615 32.5846 22.1502 32.7511 21.7878 32.8721C21.4556 32.9629 21.1687 32.9629 20.9271 32.8721C20.6252 32.7208 20.3081 32.3424 19.9759 31.7371C19.6739 31.1015 19.5078 30.5264 19.4776 30.0119C19.4172 29.4368 19.3116 28.6196 19.1606 27.5603C19.07 26.9247 19.0247 26.2436 19.0247 25.5172C19.0549 24.7908 19.1153 24.4276 19.2059 24.4276C19.2663 24.4276 19.538 24.5033 20.0212 24.6546C20.5044 24.806 21.1838 24.7303 22.0596 24.4276C22.9655 24.125 24.1734 23.7769 25.6833 23.3834C27.1932 22.9899 28.0689 22.6419 28.3105 22.3392C28.5823 22.0365 28.8994 21.9306 29.2618 22.0214C29.6543 22.1122 29.8959 22.0668 29.9865 21.8852ZM26.2722 17.7538C26.4232 17.4511 26.6345 17.3906 26.9063 17.5722C27.1781 17.7235 27.3593 17.7235 27.4499 17.5722C27.5707 17.4511 28.0388 17.4511 28.8541 17.5722C29.6694 17.663 30.1828 17.784 30.3942 17.9354C30.6056 18.1472 30.5603 18.3591 30.2583 18.571C29.9865 18.7828 29.8959 18.9644 29.9865 19.1158C30.0771 19.2671 30.0469 19.4033 29.8959 19.5244C29.7449 19.6454 29.5033 19.7816 29.1712 19.933C28.839 20.054 28.4766 20.1297 28.084 20.16C27.2989 20.281 26.5893 20.4324 25.9551 20.614C25.1398 20.9167 24.0526 21.1437 22.6937 21.295C21.3348 21.4463 20.4289 21.4463 19.9759 21.295C18.466 20.9318 18.6774 20.4778 20.6101 19.933C20.7007 19.8724 20.7913 19.8422 20.8818 19.8422C21.8784 19.6 22.9957 19.2217 24.2338 18.7072C25.5021 18.1926 26.1816 17.8748 26.2722 17.7538ZM23.1467 4.76922C23.0561 4.73895 23.0863 4.61788 23.2373 4.40601C23.4185 4.19414 23.645 4.08821 23.9167 4.08821C24.2187 4.08821 24.7774 4.39088 25.5927 4.99622C26.4081 5.57129 26.8459 5.96476 26.9063 6.17663C26.9365 6.4793 26.4232 7.47811 25.3662 9.17306C24.3093 10.868 23.5695 11.8668 23.1467 12.1695C22.9051 12.3208 22.9504 12.4419 23.2826 12.5327C23.4034 12.5327 23.5695 12.563 23.7808 12.6235C24.415 12.6538 26.091 13.3348 28.8088 14.6665C31.5568 15.9983 33.1271 16.7095 33.5197 16.8003C33.9122 16.8911 34.2142 17.0425 34.4256 17.2543C34.939 17.6781 36.7357 18.5407 39.8159 19.8422C40.1179 19.9632 41.0238 20.16 42.5337 20.4324C44.0134 20.6745 44.9496 20.9015 45.3421 21.1134C45.7649 21.295 45.9612 21.5977 45.931 22.0214C45.8404 22.7781 45.6441 23.2169 45.3421 23.338C45.0402 23.4591 44.104 23.4894 42.5337 23.4288C40.6917 23.338 39.514 23.2018 39.0006 23.0202C38.5778 22.8689 37.3095 22.1122 35.1957 20.7502C33.112 19.3579 31.6172 18.2986 30.7113 17.5722C29.3524 16.4523 27.6311 15.4989 25.5474 14.7119C24.1885 14.1066 23.2826 13.8342 22.8296 13.8947C22.4068 13.9552 21.9237 14.4093 21.3801 15.2567C20.8366 16.1647 20.3232 17.1333 19.84 18.1624C19.3871 19.1914 18.7227 20.3265 17.847 21.5674C16.9712 22.8083 16.2616 23.8677 15.718 24.7454C14.8725 26.1982 14.3289 26.7128 14.0873 26.289C13.8155 25.8956 14.7215 24.125 16.8051 20.9772C17.7715 19.4638 18.4358 18.238 18.7982 17.2998C19.1908 16.3615 19.5984 15.514 20.0212 14.7573C20.444 13.9704 20.746 13.2742 20.9271 12.6689C21.1385 12.0333 21.4707 11.1253 21.9237 9.94487C22.2861 9.00659 22.6031 7.94725 22.8749 6.76684C23.1769 5.58642 23.2675 4.92055 23.1467 4.76922ZM8.5611 0.138362C8.74229 -0.103773 9.25566 -0.0281042 10.1012 0.365367C10.9769 0.758837 11.6866 1.27338 12.2301 1.90898C12.5623 2.27219 12.7586 2.55972 12.819 2.77159C12.9096 2.98346 12.9096 3.30127 12.819 3.725C12.7586 4.36061 12.6529 4.79948 12.5019 5.04162C12.3811 5.28375 12.3207 5.64696 12.3207 6.13123C12.3207 6.58523 12.1698 7.70511 11.8678 9.49086C11.5658 11.2766 11.4148 12.3965 11.4148 12.8505C11.4148 13.1834 11.4601 13.3802 11.5507 13.4407C11.6413 13.471 11.898 13.4407 12.3207 13.3499C13.1663 13.2288 13.6193 13.5315 13.6796 14.2579C13.74 14.6817 13.6947 14.9692 13.5438 15.1205C13.423 15.2719 13.0757 15.4232 12.5019 15.5745C11.6866 15.8772 11.2185 16.1193 11.0977 16.3009C11.0071 16.4523 10.9618 16.9517 10.9618 17.7992C10.9618 18.6164 10.8863 19.479 10.7354 20.387C10.5844 21.295 10.524 21.7793 10.5542 21.8398C10.6146 21.9003 11.5054 21.4312 13.2267 20.4324C14.948 19.4033 15.8237 18.9342 15.8539 19.025C15.8841 19.025 15.7935 19.146 15.5821 19.3882C15.3707 19.6 15.0688 19.8876 14.6762 20.2508C14.2836 20.614 13.8457 21.0377 13.3626 21.522L10.7807 23.8374L10.7354 25.5626C10.675 26.7128 10.6448 27.5451 10.6448 28.0597C10.7354 32.5392 10.8712 34.9303 11.0524 35.2329C11.1732 35.5356 11.2487 36.262 11.2789 37.4122C11.3393 38.1083 11.3242 38.5774 11.2336 38.8196C11.1732 39.0617 11.0373 39.3039 10.8259 39.546L10.2824 40L9.69353 39.3644C9.33115 38.9407 9.14996 38.6228 9.14996 38.411C9.14996 38.1991 8.99897 37.8813 8.69699 37.4576C8.18363 36.7312 8.01754 36.368 8.19873 36.368C8.22893 36.368 8.33462 36.3982 8.51581 36.4588C9.05937 36.5798 9.36135 36.4588 9.42174 36.0956C9.51234 35.7324 9.49724 34.7638 9.37645 33.1899C9.22546 31.2528 9.14996 29.4974 9.14996 27.9235C9.14996 26.3496 9.05937 25.5172 8.87818 25.4264C8.75739 25.3659 8.37992 25.5475 7.74576 25.9712C7.1418 26.395 6.52275 26.9398 5.88859 27.6057C5.16384 28.3623 4.46929 28.8769 3.80494 29.1493C3.35197 29.3006 3.01979 29.3763 2.8084 29.3763C2.59702 29.346 2.12895 29.1341 1.4042 28.7407C0.468067 28.2867 0 27.9537 0 27.7419C0 27.53 0.105693 27.3484 0.317078 27.1971C0.558661 27.0155 0.830442 26.9247 1.13242 26.9247C1.85717 26.9247 3.59355 26.1074 6.34156 24.473L8.87818 22.9748V20.7502C8.87818 19.2671 8.92348 18.4196 9.01407 18.2078C9.10467 17.9959 9.07447 17.7992 8.92348 17.6176C8.80269 17.4057 8.09304 17.5419 6.79453 18.0262C5.52622 18.4802 4.65048 18.7072 4.16731 18.7072C3.68414 18.7072 3.08019 18.571 2.35544 18.2986C1.66088 18.0262 1.25321 17.7538 1.13242 17.4814C0.981432 17.209 1.02673 16.9819 1.26831 16.8003C1.50989 16.5885 1.99306 16.422 2.71781 16.3009C3.56335 16.1799 4.57498 15.968 5.7527 15.6653C6.96062 15.3324 7.79106 15.06 8.24403 14.8481L9.05937 14.3941L9.24056 9.21846C9.39155 4.70868 9.22546 1.98465 8.74229 1.04637C8.53091 0.622636 8.47051 0.319965 8.5611 0.138362Z" fill="#333333"/>
</svg>
