<svg width="22" height="19" viewBox="0 0 22 19" fill="none" xmlns="http://www.w3.org/2000/svg">
<path fill-rule="evenodd" clip-rule="evenodd" d="M2.20036 1.99063C3.34567 0.845055 4.86258 0.146367 6.47759 0.0205386C8.09259 -0.10529 9.69941 0.350022 11.0083 1.30438C12.3913 0.3038 14.1001 -0.13978 15.7951 0.0618088C17.4901 0.263397 19.0473 1.09539 20.157 2.39242C21.2667 3.68945 21.8477 5.35655 21.7846 7.06235C21.7215 8.76814 21.0188 10.3877 19.8163 11.5992L13.4102 18.0053C12.7731 18.6422 11.9092 19 11.0083 19C10.1075 19 9.24355 18.6422 8.60647 18.0053L2.20036 11.6004C0.926238 10.3261 0.210449 8.598 0.210449 6.79606C0.210449 4.99411 0.926238 3.26483 2.20036 1.99063Z" fill="#333333"/>
</svg>
