<svg width="24" height="24" viewBox="0 0 24 24" fill="none" xmlns="http://www.w3.org/2000/svg">
<path fill-rule="evenodd" clip-rule="evenodd" d="M8.02626 5.26278C7.43029 5.26148 6.83993 5.3779 6.28907 5.60537C5.73822 5.83283 5.23772 6.16686 4.8163 6.58827C4.39489 7.00969 4.06086 7.51019 3.83339 8.06105C3.60593 8.6119 3.48951 9.20226 3.49081 9.79823C3.49212 10.3942 3.61112 10.984 3.841 11.5339C4.07087 12.0837 4.40709 12.5828 4.83035 13.0023L4.83387 13.0058L11.234 19.406C11.234 19.4059 11.234 19.406 11.234 19.406C11.4461 19.618 11.7339 19.7372 12.0339 19.7372C12.3338 19.7372 12.6214 19.6181 12.8336 19.4062C12.8335 19.4062 12.8336 19.4061 12.8336 19.4062L19.2285 13.0101C20.0564 12.1583 20.5163 11.015 20.5087 9.82697C20.501 8.63668 20.0248 7.49731 19.183 6.65569C18.3413 5.81407 17.2019 5.33797 16.0116 5.33051C14.8213 5.32305 13.676 5.78484 12.8237 6.61585C12.379 7.04955 11.6677 7.04351 11.2304 6.60232C10.8108 6.17906 10.3118 5.84285 9.76192 5.61297C9.21207 5.38309 8.62223 5.26409 8.02626 5.26278ZM5.42544 3.51389C6.25172 3.17269 7.13726 2.99806 8.03121 3.00002C8.92516 3.00197 9.80993 3.18048 10.6347 3.5253C11.1368 3.73519 11.6106 4.00418 12.0464 4.32574C13.2007 3.50404 14.5914 3.05879 16.0257 3.06778C17.8112 3.07897 19.5203 3.79313 20.7829 5.05556C22.0455 6.31799 22.7599 8.02704 22.7714 9.81247C22.7828 11.5979 22.0904 13.316 20.8441 14.5945L20.8341 14.6047L14.4337 21.006C13.7972 21.6424 12.9339 22 12.0339 22C11.1339 22 10.2707 21.6425 9.63421 21.0062L3.23735 14.6094C3.23673 14.6087 3.23612 14.6081 3.23551 14.6075C2.60149 13.9786 2.0978 13.2307 1.75332 12.4067C1.40851 11.5819 1.23 10.6971 1.22804 9.80318C1.22609 8.90923 1.40072 8.02369 1.74192 7.19741C2.08311 6.37113 2.58416 5.62037 3.21628 4.98825C3.8484 4.35613 4.59916 3.85509 5.42544 3.51389Z" fill="#5B5B5B"/>
</svg>
