<svg width="18" height="14" viewBox="0 0 18 14" fill="none" xmlns="http://www.w3.org/2000/svg">
<path d="M11 12C11.2549 12.0003 11.5 12.0979 11.6854 12.2728C11.8707 12.4478 11.9822 12.687 11.9972 12.9414C12.0121 13.1958 11.9293 13.4464 11.7657 13.6418C11.6021 13.8373 11.3701 13.9629 11.117 13.993L11 14H7C6.74512 13.9997 6.49997 13.9021 6.31463 13.7272C6.1293 13.5522 6.01776 13.313 6.00283 13.0586C5.98789 12.8042 6.07067 12.5536 6.23426 12.3582C6.39785 12.1627 6.6299 12.0371 6.883 12.007L7 12H11ZM14 6C14.2652 6 14.5196 6.10536 14.7071 6.29289C14.8946 6.48043 15 6.73478 15 7C15 7.26522 14.8946 7.51957 14.7071 7.70711C14.5196 7.89464 14.2652 8 14 8H4C3.73478 8 3.48043 7.89464 3.29289 7.70711C3.10536 7.51957 3 7.26522 3 7C3 6.73478 3.10536 6.48043 3.29289 6.29289C3.48043 6.10536 3.73478 6 4 6H14ZM17 0C17.2652 0 17.5196 0.105357 17.7071 0.292893C17.8946 0.48043 18 0.734784 18 1C18 1.26522 17.8946 1.51957 17.7071 1.70711C17.5196 1.89464 17.2652 2 17 2H1C0.734784 2 0.48043 1.89464 0.292893 1.70711C0.105357 1.51957 0 1.26522 0 1C0 0.734784 0.105357 0.48043 0.292893 0.292893C0.48043 0.105357 0.734784 0 1 0H17Z" fill="#333333"/>
</svg>
