<svg width="24" height="24" viewBox="0 0 24 24" fill="none" xmlns="http://www.w3.org/2000/svg">
<path fill-rule="evenodd" clip-rule="evenodd" d="M7.46031 2.45392C8.58259 1.98905 9.78545 1.74979 11.0002 1.74979C12.215 1.74979 13.4178 1.98905 14.5401 2.45392C15.6624 2.91878 16.6821 3.60015 17.5411 4.45911C18.4 5.31807 19.0814 6.3378 19.5463 7.46009C20.0112 8.58238 20.2504 9.78524 20.2504 11C20.2504 12.2147 20.0111 13.4176 19.5463 14.5399C19.2418 15.2751 18.8444 15.9662 18.365 16.597L21.8841 20.1161C22.3722 20.6043 22.3722 21.3957 21.8841 21.8839C21.3959 22.372 20.6045 22.372 20.1163 21.8839L16.5972 18.3648C14.9969 19.5811 13.033 20.2502 11.0002 20.2502C8.5469 20.2502 6.19407 19.2756 4.45932 17.5409C2.72457 15.8061 1.75 13.4533 1.75 11C1.75 8.54669 2.72457 6.19386 4.45932 4.45911C5.31828 3.60015 6.33802 2.91878 7.46031 2.45392ZM11.0002 4.24979C10.1138 4.24979 9.23599 4.42439 8.41701 4.76362C7.59804 5.10284 6.8539 5.60006 6.22709 6.22688C4.96118 7.49279 4.25 9.20973 4.25 11C4.25 12.7903 4.96118 14.5072 6.22709 15.7731C7.493 17.039 9.20994 17.7502 11.0002 17.7502C12.7905 17.7502 14.5074 17.039 15.7733 15.7731C16.4001 15.1463 16.8974 14.4022 17.2366 13.5832C17.5758 12.7642 17.7504 11.8864 17.7504 11C17.7504 10.1135 17.5758 9.23577 17.2366 8.4168C16.8974 7.59783 16.4001 6.85369 15.7733 6.22688C15.1465 5.60006 14.4024 5.10284 13.5834 4.76362C12.7644 4.42439 11.8867 4.24979 11.0002 4.24979Z" fill="#5B5B5B"/>
</svg>
