<svg width="0" height="0" class="hidden">
  <symbol fill="currentcolor" stroke="currentcolor" stroke-width="0" xmlns="http://www.w3.org/2000/svg" viewBox="0 0 24 24" id="arrow-down">
    <path d="M7.41 8.58997L12 13.17L16.59 8.58997L18 9.99997L12 16L6 9.99997L7.41 8.58997Z" fill="currentcolor"></path>
  </symbol>
  <symbol fill="currentcolor" stroke="currentcolor" stroke-width="0" xmlns="http://www.w3.org/2000/svg" viewBox="0 0 24 24" id="chevron-left">
    <path d="M15.41 7.41L14 6L8 12L14 18L15.41 16.59L10.83 12L15.41 7.41Z" fill="currentcolor"></path>
  </symbol>
  <symbol fill="currentcolor" stroke="currentcolor" stroke-width="0" xmlns="http://www.w3.org/2000/svg" viewBox="0 0 24 24" id="chevron-right">
    <path d="M10.0001 6L8.59009 7.41L13.1701 12L8.59009 16.59L10.0001 18L16.0001 12L10.0001 6Z" fill="currentcolor"></path>
  </symbol>
  <symbol fill="currentcolor" stroke="currentcolor" stroke-width="0" xmlns="http://www.w3.org/2000/svg" viewBox="0 0 24 24" id="close">
    <path d="M7 7L17 17M7 17L17 7" stroke="currentColor" stroke-width="2.5" stroke-linecap="round" stroke-linejoin="round"></path>
  </symbol>
  <symbol fill="currentcolor" stroke="currentcolor" stroke-width="0" xmlns="http://www.w3.org/2000/svg" viewBox="0 0 44 16" id="heading-arrow">
    <path fill-rule="evenodd" clip-rule="evenodd" d="M36.906 9L43.8273 15.105C43.9844 15.2435 44.041 15.4681 43.9693 15.6677C43.8975 15.8674 43.7125 16 43.5056 16H0V14.9825H42.1691L36.2625 9.77257L36.906 9Z" fill="currentcolor"></path>
  </symbol>
  <symbol fill="currentcolor" stroke="currentcolor" stroke-width="0" xmlns="http://www.w3.org/2000/svg" viewBox="0 0 24 24" id="cart">
    <path fill-rule="evenodd" clip-rule="evenodd" d="M3.16667 2.66663C2.52233 2.66663 2 3.18896 2 3.83329C2 4.47762 2.52233 4.99996 3.16667 4.99996H4.54356L6.68932 15.7288C6.79839 16.2741 7.2772 16.6666 7.83333 16.6666H19.5C20.0209 16.6666 20.4787 16.3213 20.6218 15.8205L22.9551 7.6538C23.0557 7.30179 22.9852 6.923 22.7647 6.63073C22.5443 6.33846 22.1994 6.16662 21.8333 6.16662H7.15643L6.64401 3.60449C6.53494 3.05916 6.05613 2.66663 5.5 2.66663H3.16667ZM8.78977 14.3333L7.6231 8.49996H20.2866L18.62 14.3333H8.78977ZM8.41666 21.3333C9.38315 21.3333 10.1667 20.5497 10.1667 19.5833C10.1667 18.6168 9.38315 17.8333 8.41666 17.8333C7.45016 17.8333 6.66666 18.6168 6.66666 19.5833C6.66666 20.5497 7.45016 21.3333 8.41666 21.3333ZM18.9167 21.3333C19.8832 21.3333 20.6667 20.5497 20.6667 19.5833C20.6667 18.6168 19.8832 17.8333 18.9167 17.8333C17.9502 17.8333 17.1667 18.6168 17.1667 19.5833C17.1667 20.5497 17.9502 21.3333 18.9167 21.3333Z" fill="currentColor"></path>
  </symbol>
  <symbol fill="currentcolor" stroke="currentcolor" stroke-width="0" xmlns="http://www.w3.org/2000/svg" viewBox="0 0 24 24" id="favorite">
    <path fill-rule="evenodd" clip-rule="evenodd" d="M8.02626 5.26278C7.43029 5.26148 6.83993 5.3779 6.28907 5.60537C5.73822 5.83283 5.23772 6.16686 4.8163 6.58827C4.39489 7.00969 4.06086 7.51019 3.83339 8.06105C3.60593 8.6119 3.48951 9.20226 3.49081 9.79823C3.49212 10.3942 3.61112 10.984 3.841 11.5339C4.07087 12.0837 4.40709 12.5828 4.83035 13.0023L4.83387 13.0058L11.234 19.406C11.234 19.4059 11.234 19.406 11.234 19.406C11.4461 19.618 11.7339 19.7372 12.0339 19.7372C12.3338 19.7372 12.6214 19.6181 12.8336 19.4062C12.8335 19.4062 12.8336 19.4061 12.8336 19.4062L19.2285 13.0101C20.0564 12.1583 20.5163 11.015 20.5087 9.82697C20.501 8.63668 20.0248 7.49731 19.183 6.65569C18.3413 5.81407 17.2019 5.33797 16.0116 5.33051C14.8213 5.32305 13.676 5.78484 12.8237 6.61585C12.379 7.04955 11.6677 7.04351 11.2304 6.60232C10.8108 6.17906 10.3118 5.84285 9.76192 5.61297C9.21207 5.38309 8.62223 5.26409 8.02626 5.26278ZM5.42544 3.51389C6.25172 3.17269 7.13726 2.99806 8.03121 3.00002C8.92516 3.00197 9.80993 3.18048 10.6347 3.5253C11.1368 3.73519 11.6106 4.00418 12.0464 4.32574C13.2007 3.50404 14.5914 3.05879 16.0257 3.06778C17.8112 3.07897 19.5203 3.79313 20.7829 5.05556C22.0455 6.31799 22.7599 8.02704 22.7714 9.81247C22.7828 11.5979 22.0904 13.316 20.8441 14.5945L20.8341 14.6047L14.4337 21.006C13.7972 21.6424 12.9339 22 12.0339 22C11.1339 22 10.2707 21.6425 9.63421 21.0062L3.23735 14.6094C3.23673 14.6087 3.23612 14.6081 3.23551 14.6075C2.60149 13.9786 2.0978 13.2307 1.75332 12.4067C1.40851 11.5819 1.23 10.6971 1.22804 9.80318C1.22609 8.90923 1.40072 8.02369 1.74192 7.19741C2.08311 6.37113 2.58416 5.62037 3.21628 4.98825C3.8484 4.35613 4.59916 3.85509 5.42544 3.51389Z" fill="currentColor"></path>
  </symbol>
  <symbol fill="currentColor" stroke="currentcolor" stroke-width="0" xmlns="http://www.w3.org/2000/svg" viewBox="0 0 24 24" id="facebook">
    <path d="M8.5007 6.5C8.5007 5.04131 9.09082 3.64236 10.1412 2.61091C11.1916 1.57946 12.6163 1 14.1018 1L18.7694 1V6.95833H15.0353V8.79167H19L17.6511 14.75H15.0353V23H8.5007V14.75H5V8.79167H8.5007V6.5ZM14.1018 2.83333C13.1115 2.83333 12.1617 3.21964 11.4614 3.90728C10.7612 4.59491 10.3677 5.52754 10.3677 6.5V10.625H6.86704V12.9167H10.3677V21.1667H13.1683V12.9167H16.1537L16.6718 10.625H13.1683V6.95833C13.1683 6.4721 13.365 6.00579 13.7151 5.66197C14.0653 5.31815 14.5402 5.125 15.0353 5.125H16.9024V2.83333H14.1018Z" fill="currentColor"></path>
  </symbol>
  <symbol fill="currentcolor" stroke="currentcolor" stroke-width="0" xmlns="http://www.w3.org/2000/svg" viewBox="0 0 22 19" id="favorite_filled">
    <path fill-rule="evenodd" clip-rule="evenodd" d="M2.20036 1.99063C3.34567 0.845055 4.86258 0.146367 6.47759 0.0205386C8.09259 -0.10529 9.69941 0.350022 11.0083 1.30438C12.3913 0.3038 14.1001 -0.13978 15.7951 0.0618088C17.4901 0.263397 19.0473 1.09539 20.157 2.39242C21.2667 3.68945 21.8477 5.35655 21.7846 7.06235C21.7215 8.76814 21.0188 10.3877 19.8163 11.5992L13.4102 18.0053C12.7731 18.6422 11.9092 19 11.0083 19C10.1075 19 9.24355 18.6422 8.60647 18.0053L2.20036 11.6004C0.926238 10.3261 0.210449 8.598 0.210449 6.79606C0.210449 4.99411 0.926238 3.26483 2.20036 1.99063Z" fill="currentcolor"></path>
  </symbol>
  <symbol fill="currentcolor" stroke="currentcolor" stroke-width="0" xmlns="http://www.w3.org/2000/svg" viewBox="0 0 18 14" id="filter">
    <path d="M11 12C11.2549 12.0003 11.5 12.0979 11.6854 12.2728C11.8707 12.4478 11.9822 12.687 11.9972 12.9414C12.0121 13.1958 11.9293 13.4464 11.7657 13.6418C11.6021 13.8373 11.3701 13.9629 11.117 13.993L11 14H7C6.74512 13.9997 6.49997 13.9021 6.31463 13.7272C6.1293 13.5522 6.01776 13.313 6.00283 13.0586C5.98789 12.8042 6.07067 12.5536 6.23426 12.3582C6.39785 12.1627 6.6299 12.0371 6.883 12.007L7 12H11ZM14 6C14.2652 6 14.5196 6.10536 14.7071 6.29289C14.8946 6.48043 15 6.73478 15 7C15 7.26522 14.8946 7.51957 14.7071 7.70711C14.5196 7.89464 14.2652 8 14 8H4C3.73478 8 3.48043 7.89464 3.29289 7.70711C3.10536 7.51957 3 7.26522 3 7C3 6.73478 3.10536 6.48043 3.29289 6.29289C3.48043 6.10536 3.73478 6 4 6H14ZM17 0C17.2652 0 17.5196 0.105357 17.7071 0.292893C17.8946 0.48043 18 0.734784 18 1C18 1.26522 17.8946 1.51957 17.7071 1.70711C17.5196 1.89464 17.2652 2 17 2H1C0.734784 2 0.48043 1.89464 0.292893 1.70711C0.105357 1.51957 0 1.26522 0 1C0 0.734784 0.105357 0.48043 0.292893 0.292893C0.48043 0.105357 0.734784 0 1 0H17Z" fill="currentcolor"></path>
  </symbol>
  <symbol fill="currentcolor" stroke="currentcolor" stroke-width="0" xmlns="http://www.w3.org/2000/svg" viewBox="0 0 24 24" id="line">
    <path fill-rule="evenodd" clip-rule="evenodd" d="M12 1.25C6.18167 1.25 1.25 5.28215 1.25 10.5C1.25 15.7178 6.18167 19.75 12 19.75H12.0007C12.4233 19.7496 12.8398 19.7292 13.25 19.6885V22C13.25 22.3019 13.431 22.5744 13.7093 22.6914C13.9876 22.8084 14.309 22.7471 14.5247 22.5359C16.1947 20.9009 19.0535 18.0085 20.8412 15.766C22.0374 14.2811 22.75 12.4666 22.75 10.5C22.75 5.28215 17.8183 1.25 12 1.25ZM2.75 10.5C2.75 6.32985 6.77233 2.75 12 2.75C17.2277 2.75 21.25 6.32985 21.25 10.5C21.25 12.0927 20.6751 13.5816 19.672 14.8264L19.6695 14.8295C18.3335 16.5057 16.3515 18.5861 14.75 20.1984V18.83C14.75 18.6086 14.6522 18.3985 14.4827 18.256C14.3132 18.1135 14.0894 18.0531 13.8713 18.0911C13.2688 18.1961 12.645 18.2494 11.9993 18.25C6.77195 18.2497 2.75 14.67 2.75 10.5ZM11.7431 8.11413C11.5697 7.82506 11.2247 7.68723 10.8998 7.77721C10.5749 7.8672 10.35 8.16289 10.35 8.5V12.5C10.35 12.9142 10.6858 13.25 11.1 13.25C11.5142 13.25 11.85 12.9142 11.85 12.5V11.2077L12.8569 12.8859C13.0303 13.1749 13.3753 13.3128 13.7002 13.2228C14.0251 13.1328 14.25 12.8371 14.25 12.5V8.5C14.25 8.08579 13.9142 7.75 13.5 7.75C13.0858 7.75 12.75 8.08579 12.75 8.5V9.79226L11.7431 8.11413ZM6.75 8.5C6.75 8.08579 6.41421 7.75 6 7.75C5.58579 7.75 5.25 8.08579 5.25 8.5V12.5C5.25 12.9142 5.58579 13.25 6 13.25H7C7.41421 13.25 7.75 12.9142 7.75 12.5C7.75 12.0858 7.41421 11.75 7 11.75H6.75V8.5ZM9.75 8.5C9.75 8.08579 9.41421 7.75 9 7.75C8.58579 7.75 8.25 8.08579 8.25 8.5V12.5C8.25 12.9142 8.58579 13.25 9 13.25C9.41421 13.25 9.75 12.9142 9.75 12.5V8.5ZM15.6 7.75C15.1858 7.75 14.85 8.08579 14.85 8.5V10.5V12.5C14.85 12.9142 15.1858 13.25 15.6 13.25H17.5C17.9142 13.25 18.25 12.9142 18.25 12.5C18.25 12.0858 17.9142 11.75 17.5 11.75H16.35V11.25H17.04C17.4542 11.25 17.79 10.9142 17.79 10.5C17.79 10.0858 17.4542 9.75 17.04 9.75H16.35V9.25H17.5C17.9142 9.25 18.25 8.91421 18.25 8.5C18.25 8.08579 17.9142 7.75 17.5 7.75H15.6Z" fill="currentcolor"></path>
  </symbol>
  <symbol fill="currentcolor" stroke="currentcolor" stroke-width="0" xmlns="http://www.w3.org/2000/svg" viewBox="0 0 24 24" id="search">
    <path fill-rule="evenodd" clip-rule="evenodd" d="M7.46031 2.45392C8.58259 1.98905 9.78545 1.74979 11.0002 1.74979C12.215 1.74979 13.4178 1.98905 14.5401 2.45392C15.6624 2.91878 16.6821 3.60015 17.5411 4.45911C18.4 5.31807 19.0814 6.3378 19.5463 7.46009C20.0112 8.58238 20.2504 9.78524 20.2504 11C20.2504 12.2147 20.0111 13.4176 19.5463 14.5399C19.2418 15.2751 18.8444 15.9662 18.365 16.597L21.8841 20.1161C22.3722 20.6043 22.3722 21.3957 21.8841 21.8839C21.3959 22.372 20.6045 22.372 20.1163 21.8839L16.5972 18.3648C14.9969 19.5811 13.033 20.2502 11.0002 20.2502C8.5469 20.2502 6.19407 19.2756 4.45932 17.5409C2.72457 15.8061 1.75 13.4533 1.75 11C1.75 8.54669 2.72457 6.19386 4.45932 4.45911C5.31828 3.60015 6.33802 2.91878 7.46031 2.45392ZM11.0002 4.24979C10.1138 4.24979 9.23599 4.42439 8.41701 4.76362C7.59804 5.10284 6.8539 5.60006 6.22709 6.22688C4.96118 7.49279 4.25 9.20973 4.25 11C4.25 12.7903 4.96118 14.5072 6.22709 15.7731C7.493 17.039 9.20994 17.7502 11.0002 17.7502C12.7905 17.7502 14.5074 17.039 15.7733 15.7731C16.4001 15.1463 16.8974 14.4022 17.2366 13.5832C17.5758 12.7642 17.7504 11.8864 17.7504 11C17.7504 10.1135 17.5758 9.23577 17.2366 8.4168C16.8974 7.59783 16.4001 6.85369 15.7733 6.22688C15.1465 5.60006 14.4024 5.10284 13.5834 4.76362C12.7644 4.42439 11.8867 4.24979 11.0002 4.24979Z" fill="currentColor"></path>
  </symbol>
  <symbol fill="currentcolor" stroke="currentcolor" stroke-width="0" xmlns="http://www.w3.org/2000/svg" viewBox="0 0 24 24" id="instagram">
    <path d="M11.95 1H12.05C13.877 1 15.316 1 16.47 1.105C17.648 1.211 18.626 1.433 19.5 1.938C20.564 2.55235 21.4476 3.43595 22.062 4.5C22.567 5.374 22.789 6.352 22.895 7.53C23 8.684 23 10.123 23 11.95V12.05C23 13.877 23 15.316 22.895 16.47C22.789 17.648 22.567 18.626 22.062 19.5C21.4476 20.564 20.564 21.4476 19.5 22.062C18.626 22.567 17.648 22.789 16.47 22.895C15.316 23 13.877 23 12.05 23H11.95C10.123 23 8.684 23 7.53 22.895C6.352 22.789 5.374 22.567 4.5 22.062C3.43595 21.4476 2.55235 20.564 1.938 19.5C1.433 18.626 1.211 17.648 1.105 16.47C1 15.316 1 13.877 1 12.05V11.95C1 10.123 1 8.684 1.105 7.53C1.211 6.352 1.433 5.374 1.938 4.5C2.55235 3.43595 3.43595 2.55235 4.5 1.938C5.374 1.433 6.352 1.211 7.53 1.105C8.684 1 10.123 1 11.95 1ZM7.71 3.096C6.671 3.191 6.019 3.37 5.5 3.67C4.73997 4.10882 4.10882 4.73997 3.67 5.5C3.37 6.019 3.19 6.671 3.096 7.71C3.001 8.764 3 10.112 3 12C3 13.888 3.001 15.236 3.096 16.29C3.191 17.329 3.37 17.981 3.67 18.5C4.10882 19.26 4.73997 19.8912 5.5 20.33C6.019 20.63 6.671 20.81 7.71 20.904C8.764 20.999 10.112 21 12 21C13.888 21 15.236 20.999 16.29 20.904C17.329 20.809 17.981 20.63 18.5 20.33C19.26 19.8912 19.8912 19.26 20.33 18.5C20.63 17.981 20.81 17.329 20.904 16.29C20.999 15.237 21 13.888 21 12C21 10.112 20.999 8.764 20.904 7.71C20.809 6.671 20.63 6.019 20.33 5.5C19.8912 4.73997 19.26 4.10882 18.5 3.67C17.981 3.37 17.329 3.19 16.29 3.096C15.237 3.001 13.888 3 12 3C10.112 3 8.764 3.001 7.71 3.096ZM16.75 6.252C16.75 5.7 17.2 5.25 17.752 5.25C18.304 5.25 18.754 5.7 18.754 6.252C18.754 6.804 18.304 7.254 17.752 7.254C17.2 7.254 16.75 6.804 16.75 6.252ZM12 8.5C11.5404 8.5 11.0852 8.59053 10.6606 8.76642C10.236 8.94231 9.85013 9.20012 9.52513 9.52513C9.20012 9.85013 8.94231 10.236 8.76642 10.6606C8.59053 11.0852 8.5 11.5404 8.5 12C8.5 12.4596 8.59053 12.9148 8.76642 13.3394C8.94231 13.764 9.20012 14.1499 9.52513 14.4749C9.85013 14.7999 10.236 15.0577 10.6606 15.2336C11.0852 15.4095 11.5404 15.5 12 15.5C12.9283 15.5 13.8185 15.1313 14.4749 14.4749C15.1313 13.8185 15.5 12.9283 15.5 12C15.5 11.0717 15.1313 10.1815 14.4749 9.52513C13.8185 8.86875 12.9283 8.5 12 8.5ZM6.5 12C6.5 10.5413 7.07946 9.14236 8.11091 8.11091C9.14236 7.07946 10.5413 6.5 12 6.5C13.4587 6.5 14.8576 7.07946 15.8891 8.11091C16.9205 9.14236 17.5 10.5413 17.5 12C17.5 13.4587 16.9205 14.8576 15.8891 15.8891C14.8576 16.9205 13.4587 17.5 12 17.5C10.5413 17.5 9.14236 16.9205 8.11091 15.8891C7.07946 14.8576 6.5 13.4587 6.5 12Z" fill="currentcolor"></path>
  </symbol>
  <symbol fill="currentcolor" stroke="currentcolor" stroke-width="0" xmlns="http://www.w3.org/2000/svg" viewBox="0 0 24 24" id="menu">
    <path fill-rule="evenodd" clip-rule="evenodd" d="M18.7553 16.5196C18.6111 16.3696 18.4205 16.286 18.2222 16.2857H5.77778L5.68678 16.2917C5.48993 16.3175 5.30944 16.4252 5.18221 16.5927C5.05497 16.7602 4.99058 16.975 5.0022 17.1931C5.01382 17.4112 5.10056 17.6162 5.24471 17.7661C5.38886 17.9161 5.57954 17.9998 5.77778 18H18.2222L18.3132 17.994C18.5101 17.9682 18.6906 17.8605 18.8178 17.693C18.945 17.5255 19.0094 17.3107 18.9978 17.0926C18.9862 16.8745 18.8994 16.6696 18.7553 16.5196ZM18.7722 11.3939C18.6263 11.2332 18.4285 11.1429 18.2222 11.1429H5.77778C5.5715 11.1429 5.37367 11.2332 5.22781 11.3939C5.08194 11.5547 5 11.7727 5 12C5 12.2273 5.08194 12.4453 5.22781 12.6061C5.37367 12.7668 5.5715 12.8571 5.77778 12.8571H18.2222C18.4285 12.8571 18.6263 12.7668 18.7722 12.6061C18.9181 12.4453 19 12.2273 19 12C19 11.7727 18.9181 11.5547 18.7722 11.3939ZM18.7722 6.25105C18.6263 6.09031 18.4285 6 18.2222 6H5.77778C5.5715 6 5.37367 6.09031 5.22781 6.25105C5.08194 6.4118 5 6.62981 5 6.85714C5 7.08447 5.08194 7.30249 5.22781 7.46323C5.37367 7.62398 5.5715 7.71429 5.77778 7.71429H18.2222C18.4285 7.71429 18.6263 7.62398 18.7722 7.46323C18.9181 7.30249 19 7.08447 19 6.85714C19 6.62981 18.9181 6.4118 18.7722 6.25105Z" fill="currentcolor"></path>
  </symbol>
  <symbol fill="currentcolor" stroke="currentcolor" stroke-width="0" xmlns="http://www.w3.org/2000/svg" viewBox="0 0 24 24" id="warning">
    <path d="M12 1.875C9.99747 1.875 8.0399 2.46882 6.37486 3.58137C4.70981 4.69392 3.41206 6.27523 2.64572 8.12533C1.87939 9.97543 1.67888 12.0112 2.06955 13.9753C2.46023 15.9393 3.42454 17.7435 4.84055 19.1595C6.25656 20.5755 8.06066 21.5398 10.0247 21.9305C11.9888 22.3211 14.0246 22.1206 15.8747 21.3543C17.7248 20.5879 19.3061 19.2902 20.4186 17.6251C21.5312 15.9601 22.125 14.0025 22.125 12C22.122 9.3156 21.0543 6.74199 19.1562 4.84383C17.258 2.94567 14.6844 1.87798 12 1.875ZM12 19.875C10.4425 19.875 8.91993 19.4131 7.62489 18.5478C6.32985 17.6825 5.32049 16.4526 4.72445 15.0136C4.12841 13.5747 3.97246 11.9913 4.27632 10.4637C4.58018 8.93606 5.3302 7.53287 6.43154 6.43153C7.53288 5.3302 8.93607 4.58017 10.4637 4.27632C11.9913 3.97246 13.5747 4.12841 15.0136 4.72445C16.4526 5.32049 17.6825 6.32985 18.5478 7.62488C19.4131 8.91992 19.875 10.4425 19.875 12C19.8728 14.0879 19.0424 16.0896 17.566 17.566C16.0896 19.0424 14.0879 19.8728 12 19.875ZM10.875 12.375V7.5C10.875 7.20163 10.9935 6.91548 11.2045 6.7045C11.4155 6.49353 11.7016 6.375 12 6.375C12.2984 6.375 12.5845 6.49353 12.7955 6.7045C13.0065 6.91548 13.125 7.20163 13.125 7.5V12.375C13.125 12.6734 13.0065 12.9595 12.7955 13.1705C12.5845 13.3815 12.2984 13.5 12 13.5C11.7016 13.5 11.4155 13.3815 11.2045 13.1705C10.9935 12.9595 10.875 12.6734 10.875 12.375ZM13.5 16.125C13.5 16.4217 13.412 16.7117 13.2472 16.9584C13.0824 17.205 12.8481 17.3973 12.574 17.5108C12.2999 17.6244 11.9983 17.6541 11.7074 17.5962C11.4164 17.5383 11.1491 17.3954 10.9393 17.1857C10.7296 16.9759 10.5867 16.7086 10.5288 16.4176C10.4709 16.1267 10.5007 15.8251 10.6142 15.551C10.7277 15.2769 10.92 15.0426 11.1666 14.8778C11.4133 14.713 11.7033 14.625 12 14.625C12.3978 14.625 12.7794 14.783 13.0607 15.0643C13.342 15.3456 13.5 15.7272 13.5 16.125Z" fill="currentcolor"></path>
  </symbol>
  <!-- social providers -->
  <symbol xmlns="http://www.w3.org/2000/svg" viewBox="0 0 266.895 266.895" id="facebook-oauth">
    <path d="M252.164 266.895c8.134 0 14.729-6.596 14.729-14.73V14.73c0-8.137-6.596-14.73-14.729-14.73H14.73C6.593 0 0 6.594 0 14.73v237.434c0 8.135 6.593 14.73 14.73 14.73h237.434z" fill="#485a96"></path>
    <path d="M184.152 266.895V163.539h34.692l5.194-40.28h-39.887V97.542c0-11.662 3.238-19.609 19.962-19.609l21.329-.01V41.897c-3.689-.49-16.351-1.587-31.08-1.587-30.753 0-51.807 18.771-51.807 53.244v29.705h-34.781v40.28h34.781v103.355h41.597z" fill="#ffffff"></path>
  </symbol>
  <symbol xmlns="http://www.w3.org/2000/svg" preserveAspectRatio="xMidYMid" viewBox="-3 0 262 262" id="google-oauth">
    <path d="M255.878 133.451c0-10.734-.871-18.567-2.756-26.69H130.55v48.448h71.947c-1.45 12.04-9.283 30.172-26.69 42.356l-.244 1.622 38.755 30.023 2.685.268c24.659-22.774 38.875-56.282 38.875-96.027" fill="#4285F4"></path>
    <path d="M130.55 261.1c35.248 0 64.839-11.605 86.453-31.622l-41.196-31.913c-11.024 7.688-25.82 13.055-45.257 13.055-34.523 0-63.824-22.773-74.269-54.25l-1.531.13-40.298 31.187-.527 1.465C35.393 231.798 79.49 261.1 130.55 261.1" fill="#34A853"></path>
    <path d="M56.281 156.37c-2.756-8.123-4.351-16.827-4.351-25.82 0-8.994 1.595-17.697 4.206-25.82l-.073-1.73L15.26 71.312l-1.335.635C5.077 89.644 0 109.517 0 130.55s5.077 40.905 13.925 58.602l42.356-32.782" fill="#FBBC05"></path>
    <path d="M130.55 50.479c24.514 0 41.05 10.589 50.479 19.438l36.844-35.974C195.245 12.91 165.798 0 130.55 0 79.49 0 35.393 29.301 13.925 71.947l42.211 32.783c10.59-31.477 39.891-54.251 74.414-54.251" fill="#EB4335"></path>
</svg>
